<?xml version="1.0" encoding="UTF-8"?>
<svg width="100pt" height="100pt" version="1.1" viewBox="0 0 100 100" xmlns="http://www.w3.org/2000/svg">
 <path d="m46.148 96.059c-14.258 0-27.77-6.3828-36.828-17.398l-3.2305-3.9297 4.4805 2.4219v-0.003906c12.535 6.7461 27.496 7.2656 40.469 1.4141 12.973-5.8555 22.484-17.414 25.723-31.277 3.2422-13.859-0.15625-28.438-9.1914-39.434l-3.1914-3.9219 4.4805 2.4102c9.5938 5.2188 17.113 13.551 21.32 23.629 4.2109 10.074 4.8516 21.281 1.8203 31.77-2.9102 9.9062-8.9492 18.605-17.215 24.789-8.2656 6.1875-18.312 9.5312-28.637 9.5312zm-31.879-15c9.1484 8.9805 21.645 13.707 34.445 13.031 12.801-0.67578 24.73-6.6953 32.879-16.586 8.1523-9.8945 11.777-22.754 9.9922-35.445-1.7812-12.695-8.8125-24.059-19.375-31.32 7.1992 10.953 9.5781 24.387 6.5742 37.145-3.0039 12.758-11.121 23.723-22.449 30.312-11.328 6.5938-24.871 8.2383-37.445 4.543-1.5664-0.49219-3.1055-1.0391-4.6211-1.6367z"/>
</svg>
