<?xml version="1.0" encoding="UTF-8"?>
<svg width="100pt" height="100pt" version="1.1" viewBox="0 0 100 100" xmlns="http://www.w3.org/2000/svg">
 <path d="m50 0c-13.262 0-25.98 5.2695-35.355 14.645s-14.645 22.094-14.645 35.355 5.2695 25.98 14.645 35.355 22.094 14.645 35.355 14.645 25.98-5.2695 35.355-14.645 14.645-22.094 14.645-35.355c-0.011719-13.258-5.2812-25.969-14.656-35.344s-22.086-14.645-35.344-14.656zm16.668 70.832h-33.336c-2.3008 0-4.1641-1.8633-4.1641-4.1641s1.8633-4.168 4.1641-4.168h33.336c2.3008 0 4.1641 1.8672 4.1641 4.168s-1.8633 4.1641-4.1641 4.1641zm0-16.668-33.336 0.003907c-2.3008 0-4.1641-1.8672-4.1641-4.168s1.8633-4.168 4.1641-4.168h33.336c2.3008 0 4.1641 1.8672 4.1641 4.168s-1.8633 4.168-4.1641 4.168zm0-16.668-33.336 0.003906c-2.3008 0-4.1641-1.8672-4.1641-4.168s1.8633-4.1641 4.1641-4.1641h33.336c2.3008 0 4.1641 1.8633 4.1641 4.1641s-1.8633 4.168-4.1641 4.168z"/>
</svg>
